<?xml version="1.0" standalone="no"?>
<!DOCTYPE svg PUBLIC "-//W3C//DTD SVG 1.1//EN" "http://www.w3.org/Graphics/SVG/1.1/DTD/svg11.dtd" >
<svg xmlns="http://www.w3.org/2000/svg">
<metadata>Generated by IcoMoon</metadata>
<defs>
<font id="iconchip" horiz-adv-x="512">
<font-face units-per-em="512" ascent="480" descent="-32" />
<missing-glyph horiz-adv-x="512" />
<glyph unicode="&#x20;" d="" horiz-adv-x="256" />
<glyph unicode="&#xe600;" d="M567.418 343.594l-125.611 125.671c-6.413 6.437-15.13 9.13-23.527 8.067-1.158 0.154-2.351 0.224-3.555 0.224h-34.926c-9.603 0-18.52-4.854-23.74-12.909-11.067-17.161-36.142-28.264-63.839-28.264-27.685 0-52.749 11.091-63.863 28.264-5.197 8.043-14.138 12.897-23.716 12.897h-34.926c-1.204 0-2.398-0.071-3.555-0.224-8.363 1.027-17.114-1.642-23.528-8.055l-125.611-125.671c-11.020-11.043-11.032-28.902-0.012-39.945l68.706-68.765c5.303-5.292 12.484-8.268 19.984-8.268s14.681 2.976 19.972 8.268l15.779 15.791v-251.99c0-15.591 12.649-28.252 28.252-28.252h244.986c15.579 0 28.252 12.649 28.252 28.252v251.99l15.803-15.791c10.594-10.595 29.351-10.595 39.957 0l68.706 68.776c11.020 11.043 11.020 28.902 0.012 39.934z" horiz-adv-x="585" />
<glyph unicode="&#xe601;" d="M491.037 86.727c0 0-0.412-0.423-1.159-1.159-42.405 16.976-89.7 4.511-126.724 37.738-37.392 33.527-65.64 86.147-96.584 125.99-34.062 43.853-69.171 86.837-104.87 129.342-25.385 30.219-48.687 65.194-81.257 88.095-4.623 9.055-8.799 12.81-16.195 7.474-3.419-0.768-6.060-3.508-7.162-6.839-4.2-4.767-9.212-11.45-15.405-20.495-42.182-61.642-48.665-115.185-25.953-176.827 22.712-61.63 17.844-279.013 17.844-279.013s9.735-12.988 19.471-6.505c9.735 6.505-12.977 212.526 4.868 236.864 0 0 76.244 42.182 141.138-102.197 64.894-144.39 95.714-147.632 141.127-147.632 45.435 0 178.464-3.241 275.793 14.625 97.363 17.844 38.929 53.499-124.932 100.537zM343.428 62.4c-58.411 68.135-199.549 303.362-235.238 352.027-0.646 0.88-1.248 1.76-1.86 2.64 19.147-21.464 36.189-45.736 53.499-66.331 43.051-51.249 84.532-103.801 125.176-156.977 24.093-31.512 44.856-66.687 74.54-93.331 32.681-29.306 75.409-17.911 113.714-29.44-28.994-22.99-87.517-57.977-129.832-8.588z" horiz-adv-x="666" />
<glyph unicode="&#xe602;" d="M413.603 300.421c0.331 5.175-5.695 18.314-16.223 35.115 4.384 16.223 8.283 35.705 6.581 49.056-3.438 26.915-22.106 78.43-63.483 85.566-18.397 3.166-42.7-3.297-63.696-11.201-19.176 11.012-38.79 18.089-57.753 18.089-25.143 0-46.871-13.115-62.444-26.383-11.673 3.852-21.716 5.104-29.326 2.93-16.081-4.584-28.534-26.619-34.938-40.538-7.892 3.048-14.356 4.111-18.893 2.587-23.808-7.999-40.715-74.507-42.807-86.239-0.248-1.358 3.143-5.411 9.181-11.39-8.117-28.581-8.673-50.025-7.302-55.555 2.151-8.495 11.331-13.186 11.13-24.399-0.39-22.52-39.758-59.773-39.758-75.782 0-11.981 31.76-16.341 31.76-16.341s2.635-7.361-2.682-21.669c-5.305-14.332 9.865-30.921 14.427-36.733 4.49-5.766 0.898-39.971 4.572-50.026 3.71-10.067 14.013-15.856 33.201-9.275 20.865 7.137 46.563 17.581 55.863 14.84 20.275-47.721-28.581-72.12-28.581-72.12h256.969c0 0-74.565 59.903-72.995 125.631 0.13 4.844 1.536 9.83 3.793 15.111 16.045 0.296 53.346 13.481 56.808 39.688 0.342 2.659-0.957 6.688-3.344 11.697 21.669 12.004 59.915 36.686 59.915 61.427 0 5.636-5.483 15.549-14.97 28.227 6.428 15.017 14.202 35.339 14.993 47.686zM229.062 243.625c-2.541 34.205-26.833 48.49-26.833 48.49s-12.228-40.857 6.12-57.729c-15.774-8.448-60.837 6.923-61.073 23.442-0.201 16.494 41.802 39.498 41.802 39.498s-58.698-2.186-58.096-17.971c-16.813 8.732-21.704 36.332 2.067 52.921 17.475 12.205 54.421-20.027 54.421-20.027s-27.246 43.279-46.174 33.071c8.436 25.757 47.958 45.678 79.362 28.486-38.99-9.546-19.224-57.517-19.224-57.517s7.762 42.618 24.718 48.159c25.202 8.271 50.533-25.603 38.234-46.044-18.904 7.585-54.964-15.029-54.964-15.029s49.553-2.978 58.438-18.077c8.861-15.041-20.204-40.314-38.801-41.672z" horiz-adv-x="418" />
<glyph unicode="&#xe603;" d="M442.672 375.964h-45.356v27.892c0 39.498-32.286 71.784-71.729 71.784h-125.575c-39.454 0-71.795-32.274-71.795-71.784v-27.936h-45.334c-39.498 0.033-71.806-27.275-71.806-66.762v-265.057c0-39.454 32.297-71.729 71.806-71.729h359.789c39.465 0 71.74 32.274 71.74 71.729v265.057c0 39.498-32.296 66.806-71.74 66.806zM166.681 403.856c0 17.618 15.691 33.354 33.332 33.354h125.585c17.541 0 33.288-15.714 33.288-33.354v-27.936h-192.205v27.936zM378.079 126.147h-76.893v-76.904h-76.838v76.904h-76.904v96.075h76.904v76.838h76.838v-76.871h76.893v-96.042z" horiz-adv-x="526" />
<glyph unicode="&#xe604;" d="M79.931 172.899l23.758-202.029h348.189l27.351 202.029-200.837 157.47-198.462-157.47zM271.268 20.197h-72.484l-4.567 76.051h77.052v-76.051zM271.268 110.507h-77.904l-5.272 87.943h83.193v-87.943h-0.017zM285.518 198.45h83.194l-5.863-87.926h-77.33v87.926zM285.518 96.248h76.382l-5.063-76.051h-71.293v76.051h-0.026zM550.522 136.057l-72.476 173.503-197.418 167.57-37.773-31.405-3.445-42.871-0.235-38.53-107.952-84.559-6.986 67.395-46.673-38.799-71.319-172.302 274.382 216.296zM136.974 295.179l95.086 74.503v32.449h-106.169zM235.609 451.666h-94.267l-15.459-44.567h106.169l3.558 44.567zM217.201 416.616h-70.049l8.326 25.551h64.698l-2.975-25.551z" horiz-adv-x="557" />
<glyph unicode="&#xe605;" d="M300.432 453.090v-140.4c0-7.475-23.158-25.728-38.656-37.104v-41.401c7.972-2.76 13.737-10.245 13.737-19.159v-219.751c0-11.233-9.103-20.342-20.337-20.342h-14.249c-11.238 0-20.347 9.103-20.347 20.342v219.751c0 8.909 5.765 16.399 13.742 19.159v40.96c-16.451 11.331-41.713 29.973-41.713 37.545v140.401c0 11.238 5.458 20.352 17.608 20.352h7.26v-146.462c0-3.487 4.439-6.298 9.912-6.298 5.468 0 9.897 2.816 9.897 6.298v146.457h18.345v-146.462c0-3.487 4.423-6.298 9.907-6.298 5.474 0 9.902 2.816 9.902 6.298v146.462h3.010c12.135 0 21.98-9.113 21.98-20.347zM104.259 472.54c0 0-54.154-35.4-54.154-129.106v-18.539c0-92.478 20.321-133.212 33.956-156.79v-180.844c0-8.305 6.728-15.038 15.043-15.038h10.526c8.299 0 15.043 6.728 15.043 15.038v189.671c0.251 1.321 0.4 2.678 0.4 4.080v270.715c0 11.495-4.496 27.413-20.813 20.813zM461.896 380.621c0 52.547-26.532 95.145-59.243 95.145-32.722 0-59.238-42.598-59.238-95.145 0-44.943 19.42-82.514 45.517-92.477v-58.993c-7.977-2.76-13.762-10.245-13.762-19.154v-217.063c0-11.238 9.108-20.342 20.357-20.342h14.244c11.238 0 20.342 9.098 20.342 20.342v217.068c0 8.909-5.745 16.394-13.737 19.159v58.993c26.091 9.964 45.522 47.524 45.522 92.467z" />
<glyph unicode="&#xe606;" d="M328.901 356.096c-21.858 21.858-50.904 33.89-81.802 33.89s-59.963-12.032-81.822-33.89l-131.407-131.407c-45.096-45.115-45.096-118.509 0-163.624l59.195-59.156c21.858-21.878 50.905-33.93 81.821-33.95 30.877 0 59.923 12.012 81.802 33.91l131.407 131.427c21.858 21.839 33.91 50.885 33.91 81.782s-12.032 59.944-33.91 81.822l-59.195 59.195zM370.905 174.868l-53.485 53.504c-7.7 7.7-20.145 7.7-27.845 0-7.7-7.68-7.7-20.184 0-27.884l55-55-31.232-31.232-55 55c-7.7 7.7-20.145 7.7-27.845 0s-7.7-20.145 0-27.845l55.001-55-31.232-31.232-55.021 55.040c-7.7 7.7-20.145 7.7-27.845 0-7.7-7.719-7.7-20.145 0-27.845l54.765-54.765c-29.184-26.427-77.233-25.856-105.256 2.186l-59.195 59.156c-29.736 29.736-29.736 78.159 0 107.894l131.407 131.387c14.415 14.415 33.595 22.351 53.977 22.351s39.562-7.936 53.957-22.351l59.176-59.176c14.415-14.415 22.39-33.595 22.39-53.976 0-14.474-4.214-28.239-11.717-40.212zM484.313 401.9c-6.459-6.459-5.061-19.2-2.521-23.315 15.144-24.478 12.248-47.025-10.26-69.534l-22.764-22.784c-10.082-10.122-33.241 14.238-62.464 43.441l-24.438 24.458c-29.204 29.204-54.41 51.476-43.441 62.464l22.784 22.803c22.291 22.272 44.524 25.442 68.825 10.673 4.352-2.659 17.605-4.392 24.024 2.067 6.44 6.459 21.425 21.425 21.425 21.425 9.373 9.393 21.051 5.908 30.483-3.505l16.266-16.305c9.393-9.373 12.879-21.11 3.505-30.464 0 0-14.986-14.966-21.425-21.425z" />
<glyph unicode="&#xe607;" d="M287.468 22.774c0 8.653-3.082 16.026-9.236 22.211s-13.558 9.257-22.211 9.257c-8.632 0-16.025-3.082-22.201-9.257s-9.246-13.558-9.246-22.211 3.082-16.046 9.246-22.231c6.174-6.154 13.568-9.236 22.201-9.236 8.663 0 16.057 3.092 22.211 9.236 6.154 6.154 9.236 13.558 9.236 22.231zM369.234 85.627v276.716c0 3.399-1.239 6.339-3.748 8.837-2.478 2.519-5.438 3.758-8.827 3.758h-201.267c-3.389 0-6.339-1.26-8.837-3.758-2.488-2.488-3.727-5.438-3.727-8.837v-276.716c0-3.389 1.239-6.329 3.727-8.858 2.478-2.488 5.438-3.728 8.837-3.728h201.247c3.399 0 6.339 1.239 8.848 3.728 2.509 2.529 3.748 5.468 3.748 8.858zM293.755 418.96c0 4.188-2.099 6.288-6.318 6.288h-62.863c-4.208 0-6.308-2.089-6.308-6.288 0-4.219 2.078-6.308 6.308-6.308h62.863c4.209 0 6.318 2.089 6.318 6.308zM406.958 425.237v-402.463c0-13.671-4.997-25.436-14.971-35.399-9.954-9.954-21.74-14.93-35.369-14.93h-201.247c-13.639 0-25.426 4.956-35.379 14.93-9.933 9.984-14.94 21.75-14.96 35.399v402.463c0 13.65 4.987 25.426 14.96 35.379 9.943 9.953 21.76 14.94 35.379 14.94h201.247c13.65 0 25.416-4.966 35.369-14.94s14.95-21.75 14.971-35.379z" />
<glyph unicode="&#xe608;" d="M167.538 73.353c-17.264 0-32.060 6.156-44.341 18.453-12.267 12.297-18.438 27.047-18.438 44.341v276.152c0 17.264 6.156 32.029 18.423 44.311 12.297 12.312 27.078 18.423 44.342 18.423h426.807c17.294 0 32.075-6.125 44.341-18.423 12.297-12.297 18.453-27.031 18.453-44.311v-276.152c0-17.295-6.156-32.075-18.453-44.341-12.297-12.297-27.047-18.453-44.341-18.453h-426.791zM154.952 412.315v-276.152c0-3.459 1.25-6.37 3.733-8.838 2.499-2.499 5.41-3.748 8.838-3.748h426.822c3.428 0 6.339 1.25 8.838 3.748 2.468 2.469 3.718 5.394 3.718 8.838v276.152c0 3.398-1.25 6.339-3.718 8.808-2.499 2.499-5.409 3.733-8.838 3.733h-426.822c-3.429 0-6.354-1.25-8.838-3.733-2.483-2.469-3.733-5.41-3.733-8.808zM694.806 48.272h62.734v-37.652c0-10.483-6.095-19.367-18.423-26.666-12.327-7.344-27.016-10.986-44.311-10.986h-627.669c-17.264 0-32.060 3.596-44.327 10.986-12.297 7.299-18.453 16.197-18.453 26.666v37.652h690.448zM412.316 10.62c4.16 0 6.278 2.087 6.278 6.278 0 4.16-2.118 6.278-6.278 6.278h-62.748c-4.205 0-6.293-2.118-6.293-6.278 0-4.19 2.072-6.278 6.293-6.278h62.748z" horiz-adv-x="762" />
<glyph unicode="&#xe609;" d="M474 182.078v217.989c0 2.273-0.819 4.239-2.498 5.898-1.659 1.659-3.625 2.488-5.898 2.488h-419.216c-2.273 0-4.229-0.829-5.898-2.488-1.659-1.659-2.499-3.625-2.499-5.898v-217.989c0-2.294 0.83-4.24 2.499-5.909 1.679-1.659 3.625-2.488 5.898-2.488h419.216c2.284 0 4.219 0.829 5.878 2.488 1.7 1.669 2.519 3.635 2.519 5.909zM507.536 400.067v-285.072c0-11.53-4.096-21.422-12.319-29.614-8.223-8.212-18.084-12.308-29.604-12.308h-142.521c0-6.482 1.403-13.24 4.178-20.306 2.796-7.055 5.601-13.271 8.377-18.596s4.178-9.134 4.199-11.408c0-4.505-1.659-8.448-4.976-11.776-3.298-3.318-7.24-4.976-11.776-4.966h-134.165c-4.536 0-8.469 1.659-11.786 4.966s-4.987 7.25-4.966 11.776c0 2.447 1.393 6.288 4.188 11.541s5.591 11.356 8.366 18.34c2.775 7.004 4.198 13.814 4.198 20.45h-142.531c-11.53 0-21.402 4.096-29.614 12.308-8.213 8.192-12.329 18.084-12.329 29.614v285.061c0 11.53 4.106 21.402 12.329 29.614 8.202 8.213 18.074 12.309 29.614 12.309h419.216c11.541 0 21.402-4.096 29.625-12.309 8.202-8.222 12.298-18.094 12.298-29.624z" />
<glyph unicode="&#xe60a;" d="M442.297 222.044c-22.897 0-41.503 18.576-41.503 41.482s18.596 41.472 41.503 41.472c22.917 0 41.462-18.565 41.462-41.472s-18.534-41.482-41.462-41.482zM442.297 118.344c-22.897 0-41.503 18.565-41.503 41.493 0 22.907 18.596 41.493 41.503 41.493 22.917 0 41.462-18.575 41.462-41.493s-18.534-41.493-41.462-41.493zM381.717 56.135c0-22.907-20.204-44.759-43.141-44.759h-248.883c-22.856 0-39.424 21.852-39.424 44.759v207.39c0 22.897 16.568 45.015 39.424 45.015h248.862c22.938 0 43.161-22.118 43.161-45.015v-207.391zM463.002 342.825h-153.703c-12.615 0-16.302 9.697-8.223 19.394l40.418 49.387c8.1 9.697 15.36 17.838 16.22 17.634 0.502-0.144 1.024-0.021 1.598-0.021 11.479 0 20.757 9.38 20.757 20.869 0 11.417-9.277 20.777-20.757 20.777-11.418 0-20.736-9.288-20.736-20.706 0-1.229 0.164-2.406 0.399-3.563 0.42-1.945-5.499-11.305-13.578-20.992l-51.323-61.563c-8.069-9.687-16.333-17.551-18.432-17.551s-10.332 7.865-18.422 17.562l-51.282 61.532c-8.089 9.707-14.070 19.077-13.66 21.033 0.246 1.147 0.389 2.345 0.389 3.564 0 11.418-9.278 20.716-20.746 20.716-11.428 0-20.746-9.298-20.746-20.716 0-11.469 9.319-20.746 20.746-20.746 0.604 0 1.126 0.112 1.649 0.236 0.881 0.215 8.161-7.465 16.251-17.183l40.376-50.299c8.079-9.697 4.393-19.394-8.213-19.394h-153.754c-22.876 0.021-43.664-14.899-43.664-37.785v-290.345c0-22.928 20.787-37.56 43.664-37.56h414.792c22.917 0 44.421 14.633 44.421 37.56v290.355c-0.021 22.887-21.504 37.806-44.442 37.806z" />
<glyph unicode="&#xe60b;" d="M256 265.4c20.531 0 38.093-7.291 52.675-21.872 14.582-14.592 21.883-32.174 21.883-52.695 0-20.551-7.301-38.113-21.883-52.695-14.582-14.592-32.144-21.873-52.675-21.873-20.541 0-38.093 7.281-52.674 21.873-14.592 14.592-21.883 32.154-21.883 52.695 0 20.521 7.291 38.103 21.883 52.695 14.592 14.582 32.154 21.873 52.674 21.873zM438.262 373.105c18.279 0 33.925-6.482 46.838-19.415 12.943-12.933 19.405-28.549 19.405-46.848v-231.957c0-18.279-6.462-33.904-19.405-46.838-12.943-12.923-28.56-19.415-46.838-19.415h-364.503c-18.289 0-33.915 6.471-46.848 19.415-12.944 12.954-19.415 28.56-19.415 46.838v231.946c0 18.299 6.471 33.915 19.415 46.848s28.56 19.415 46.848 19.415h57.989l13.209 35.205c3.256 8.458 9.267 15.749 17.992 21.883 8.725 6.123 17.643 9.185 26.788 9.185h132.546c9.144 0 18.084-3.072 26.777-9.185 8.745-6.134 14.736-13.425 18.002-21.883l13.2-35.205 58 0.010zM256 74.885c31.938 0 59.259 11.325 81.93 34.038 22.681 22.682 34.038 50.002 34.038 81.94 0 31.908-11.356 59.228-34.038 81.92-22.681 22.702-50.002 34.038-81.93 34.038-31.939 0-59.249-11.336-81.94-34.038-22.692-22.692-34.028-50.012-34.028-81.92 0-31.938 11.335-59.259 34.028-81.94 22.702-22.712 50.012-34.038 81.94-34.038z" />
<glyph unicode="&#xe60c;" d="M256 477.102c-139.766 0-253.102-113.337-253.102-253.102s113.337-253.102 253.102-253.102 253.102 113.337 253.102 253.102-113.337 253.102-253.102 253.102zM256 413.819c82.37 0 151.941-53.054 178.197-126.536h-356.403c26.266 73.482 95.836 126.536 178.207 126.536zM256 192.359c-17.48 0-31.642 14.151-31.642 31.642 0 17.48 14.162 31.642 31.642 31.642 17.49 0 31.642-14.162 31.642-31.642 0-17.49-14.151-31.642-31.642-31.642zM66.181 224c86.436 0 156.457-83.292 157.932-186.614-89.477 15.329-157.932 92.877-157.932 186.614zM287.877 37.386c1.495 103.322 71.506 186.614 157.942 186.614 0-93.737-68.455-171.285-157.942-186.614z" />
<glyph unicode="&#xe60d;" d="M256 477.747c-139.561 0-253.747-114.186-253.747-253.747 0-139.551 114.186-253.747 253.747-253.747 139.551 0 253.747 114.197 253.747 253.747 0 139.561-114.197 253.747-253.747 253.747zM427.561 89.938l-4.495 30.443-78.254-16.906-42.291-69.776 28.887-13.834c-23.522-8.683-48.834-13.65-75.408-13.65-26.563 0-51.897 4.925-75.408 13.65l28.877 13.834-42.291 69.775-78.234 16.906-4.496-30.444c-28.887 36.926-46.254 83.395-46.254 134.062 0 2.386 0.266 4.72 0.348 7.055l20.798-21.873 54.969 61.337-8.458 80.343-30.966-5.734c28.426 42.516 71.527 74.219 122.071 88.381l-14.971-27.648 74.015-31.724 74.015 31.724-14.991 27.658c50.555-14.162 93.655-45.865 122.082-88.402l-30.986 5.755-8.438-80.343 54.969-61.337 20.787 21.904c0.062-2.365 0.348-4.7 0.348-7.086 0.010-50.678-17.357-97.147-46.224-134.073zM256 308.583l88.812-65.546-33.843-103.618h-109.947l-33.843 103.608 88.822 65.556z" />
<glyph unicode="&#xe60e;" d="M125.43 15.647l30.116 30.096-77.783 77.803-30.096-30.116v-35.43h42.363v-42.353h35.4zM298.496 322.775c0 4.874-2.427 7.281-7.281 7.281-2.222 0-4.086-0.768-5.652-2.314l-179.364-179.364c-1.536-1.557-2.335-3.451-2.335-5.652 0-4.864 2.427-7.281 7.311-7.281 2.212 0 4.076 0.758 5.632 2.325l179.364 179.385c1.567 1.536 2.325 3.42 2.325 5.622zM280.638 386.314l137.657-137.677-275.313-275.323h-137.667v137.657l275.323 275.344zM506.675 354.54c0-11.694-4.086-21.606-12.257-29.778l-54.917-54.928-137.667 137.666 54.917 54.6c7.946 8.387 17.869 12.585 29.778 12.585 11.694 0 21.73-4.188 30.096-12.585l77.783-77.445c8.161-8.601 12.237-18.627 12.237-30.106h0.031z" />
<glyph unicode="&#xe60f;" d="M5.223 318.044v-62.689h219.433v94.044h-188.089c-17.306-0.010-31.345-14.049-31.345-31.355zM444.078 427.756c0 25.959-19.415 47.022-62.69 47.022-40.53 0-72.428-18.248-94.044-39.403-9.493 5.601-20.409 9.011-32.256 9.011-11.346 0-21.852-3.185-31.068-8.377-21.555 20.91-53.289 38.769-93.409 38.769-43.295 0-62.69-21.063-62.69-47.022s19.405-47.022 62.69-47.022h125.389l-0.030 0.246h0.092l-0.062-0.236h125.389c43.284 0 62.69 21.054 62.69 47.012zM199.977 412.078h-69.366c-14.295 0-31.355 2.734-31.355 15.678s17.049 15.667 31.355 15.667c31.161 0 54.804-13.937 70.707-28.898l-1.341-2.447zM309.484 413.399c15.923 15.493 40.069 30.034 71.906 30.034 14.295 0 31.344-2.724 31.344-15.667s-17.050-15.678-31.344-15.678h-71.209l-0.697 1.31zM36.567 4.567c0-17.316 14.039-31.355 31.355-31.355h156.734v250.788h-188.089v-219.433zM475.433 349.389h-186.778v-94.044h218.122v62.69c0 17.316-14.029 31.355-31.344 31.355zM288.656-26.777h155.423c17.326 0 31.355 14.029 31.355 31.355v219.423h-186.777v-250.777z" />
<glyph unicode="&#xe610;" d="M436.398 374.979c0 8.11-2.846 15.022-8.519 20.695-5.683 5.683-12.585 8.519-20.695 8.519s-15.012-2.837-20.695-8.519c-5.693-5.683-8.519-12.585-8.519-20.695 0-8.1 2.826-15.012 8.519-20.695 5.683-5.683 12.575-8.519 20.695-8.519s15.022 2.837 20.695 8.519c5.673 5.683 8.519 12.595 8.519 20.695zM504.576 462.643c0-50.524-7.659-94.198-22.958-131.031-15.339-36.854-41.063-73.421-77.179-109.773-16.425-16.22-36.229-34.089-59.382-53.565l-6.082-115.385c-0.399-3.257-2.017-5.898-4.874-7.916l-116.9-68.178c-1.413-0.798-3.052-1.198-4.894-1.198-2.417 0-4.762 0.921-6.994 2.745l-19.487 19.476c-2.642 2.857-3.441 6.103-2.427 9.738l25.866 84.019-85.545 85.545-84.040-25.856c-0.614-0.205-1.505-0.297-2.734-0.297-2.846 0-5.182 0.921-7.014 2.745l-19.487 19.476c-3.461 3.861-3.973 7.824-1.515 11.878l68.219 116.869c2.017 2.837 4.68 4.464 7.895 4.885l115.405 6.093c19.476 23.142 37.335 42.916 53.555 59.351 38.164 37.959 74.486 64.144 109.005 78.562 34.478 14.387 78.233 21.596 131.185 21.596 2.846 0 5.284-0.973 7.342-2.898 2.027-1.935 3.041-4.219 3.041-6.882v0z" />
<glyph unicode="&#xe611;" d="M348.16 8.96h-76.8v155.075c33.536 3.42 64.942 17.193 89.488 40.889 57.887 55.972 61.788 199.198 7.065 259.769l-4.587 5.069h-214.702l-4.577-5.069c-54.702-60.57-50.77-203.817 7.127-259.769 24.514-23.695 55.921-37.468 89.457-40.889v-155.075h-76.79c-8.489 0-15.36-6.871-15.36-15.36s6.861-15.36 15.36-15.36h184.32c8.478 0 15.35 6.871 15.35 15.36s-6.871 15.36-15.35 15.36zM162.652 439.040h186.675c39.414-51.61 34.939-168.755-9.851-212.019-44.974-43.458-121.959-43.52-166.943-0.020-44.79 43.284-49.305 160.43-9.881 212.039zM183.214 238.039c-22.385 21.627-33.209 66.079-31.98 108.841h209.511c1.27-42.783-9.564-87.214-31.938-108.82-37.171-35.963-108.411-35.963-145.593-0.020z" />
<glyph unicode="&#xe612;" d="M599.165 322.498c-2.588 19.44-2.952 52.912 15.085 64.148 0.325 0.208 0.559 0.507 0.845 0.767 14.773 4.72 24.981 11.339 16.957 20.26l-217.736 65.604-352.495-49.024c0 0-40.364-5.774-36.762-68.491 1.95-34.135 12.666-50.91 22.029-59.155l-28.934-8.712c-8.037-8.921 2.185-15.539 16.944-20.26 0.273-0.273 0.52-0.559 0.845-0.767 18.037-11.249 17.698-44.72 15.097-64.148-64.811-18.414-41.548-24.408-41.548-24.408l14.226-3.433c-10.013-9.038-19.935-26.202-18.076-58.712 3.615-62.692 36.775-67.009 36.775-67.009l230.701-74.993 348.19 84.317c0 0 23.264 6.021-41.534 24.408-2.614 19.428-2.978 52.899 15.111 64.161 0.312 0.221 0.559 0.507 0.819 0.806 14.76 4.681 24.967 11.327 16.944 20.26l-15.124 4.577c10.091 6.099 25.254 21.99 27.633 63.303 1.652 28.426-5.76 45.072-14.356 54.876l29.922 7.243c-0.013-0.026 23.264 5.982-41.561 24.382zM307.905 323.304l285.929 58.765c-9.428-17.243-9.038-40.832-7.464-56.007 0.325-3.433 0.741-6.567 1.119-8.947l-282.027-70.156 2.445 76.346zM56.372 262.277l285.864-58.765 2.457-76.346-281.949 70.13c0.377 2.406 0.767 5.526 1.118 8.959 1.547 15.176 1.951 38.791-7.49 56.020zM44.928 358.791c-0.351 16.684 2.614 28.738 8.621 34.877 3.823 3.914 8.335 4.733 11.43 4.733 1.638 0 2.809-0.221 2.9-0.221l227.684-74.239-2.483-76.866-223.835 62.743c-0.416 0.117-0.975 0.195-1.404 0.221-0.871 0.052-21.886 1.99-22.913 48.751zM273.653 7.493l-223.809 62.731c-0.416 0.13-0.975 0.208-1.404 0.234-0.885 0.078-21.912 2.002-22.939 48.738-0.364 16.71 2.627 28.777 8.621 34.902 3.836 3.914 8.349 4.721 11.431 4.721 1.639 0 2.809-0.208 2.9-0.208 0 0 0.013 0 0 0l227.671-74.239-2.471-76.879zM566.941 86.504c0.351-3.459 0.741-6.58 1.119-8.959l-282.027-70.156 2.457 76.32 60.273 12.392 8.921-2.132 33.368 10.845 183.354 37.672c-9.428-17.217-9.011-40.845-7.464-55.981zM582.481 190.262c-0.533-0.026-1.040-0.078-1.521-0.234l-223.809-62.757-2.457 76.878 227.333 74.148c0.026 0.013 8.452 1.885 14.655-4.422 6.021-6.138 8.986-18.192 8.635-34.876-1.040-46.736-22.067-48.686-22.835-48.739z" horiz-adv-x="650" />
<glyph unicode="&#xe613;" d="M256-26.88c138.558 0 250.88 112.322 250.88 250.88s-112.322 250.88-250.88 250.88-250.88-112.322-250.88-250.88c0-138.558 112.323-250.88 250.88-250.88zM329.523 432.456c36.926-13.026 69.356-35.594 94.341-64.727l-92.395-94.372c-9.113 13.885-21.945 25.119-37.089 32.246l35.144 126.853zM293.335 442.686l-10.578-131.646c-4.885 1.495-9.872 2.56-14.92 3.205l-17.162 131.481c14.285 0.359 28.58-0.655 42.66-3.041zM256 265.349c22.825 0 41.349-18.514 41.349-41.349 0-22.825-18.524-41.349-41.349-41.349-22.835 0-41.349 18.524-41.349 41.349 0 22.835 18.514 41.349 41.349 41.349zM199.056 154.061c12.994-10.558 28.672-17.275 45.138-19.456l-45.046-124.15c-37.079 9.902-71.465 29.358-99.205 57.006l99.113 86.6z" />
<glyph unicode="&#xe614;" d="M508.437 207.647c0-33.587-6.062-65.362-18.197-95.283l-6.062-14.878-56.135-10.025c-4.464-16.784-13.619-30.597-27.464-41.421s-29.676-16.231-47.503-16.231v-9.687c0-2.837-0.921-5.181-2.734-7.004-1.822-1.843-4.147-2.745-6.983-2.745h-19.435c-2.806 0-5.161 0.901-6.983 2.745-1.833 1.822-2.734 4.158-2.734 7.004v174.766c0 2.826 0.901 5.161 2.734 6.994 1.822 1.822 4.147 2.745 6.983 2.745h19.435c2.806 0 5.161-0.921 6.983-2.745 1.813-1.833 2.734-4.137 2.734-6.994v-9.687c14.366 0 27.525-3.604 39.445-10.783 11.94-7.168 21.34-16.845 28.221-28.979l20.644 3.635c5.858 19.221 8.796 38.728 8.796 58.563 0 29.932-8.899 58.153-26.695 84.654-17.787 26.491-41.687 47.626-71.742 63.406-30.065 15.78-61.962 23.685-95.754 23.685-33.762 0-65.68-7.895-95.734-23.685-30.034-15.78-53.965-36.915-71.742-63.406-17.817-26.501-26.695-54.713-26.695-84.654 0-19.835 2.939-39.342 8.796-58.563l20.644-3.635c6.871 12.165 16.281 21.811 28.211 28.979 11.95 7.178 25.088 10.783 39.455 10.783v9.687c0 2.826 0.901 5.161 2.734 6.994 1.822 1.822 4.147 2.745 6.983 2.745h19.415c2.826 0 5.161-0.921 6.983-2.745 1.833-1.833 2.755-4.137 2.755-6.994v-174.756c0-2.826-0.922-5.182-2.755-7.004-1.822-1.833-4.147-2.734-6.983-2.734h-19.415c-2.826 0-5.161 0.901-6.983 2.734-1.833 1.822-2.734 4.147-2.734 7.004v9.687c-17.787 0-33.618 5.397-47.504 16.231-13.865 10.834-23.019 24.606-27.463 41.421l-56.136 10.025-6.072 14.858c-12.135 29.942-18.186 61.686-18.186 95.283 0 30.525 6.768 59.945 20.306 88.279 13.548 28.313 31.662 52.839 54.313 73.575 22.661 20.726 49.561 37.274 80.722 49.613 31.14 12.349 63.519 18.524 97.075 18.504 33.577 0 65.935-6.175 97.075-18.504 31.161-12.318 58.061-28.856 80.722-49.613 22.671-20.746 40.755-45.271 54.313-73.575 13.558-28.313 20.327-57.743 20.327-88.279h0.021v0.010z" />
<glyph unicode="&#xe615;" d="M2.192 288c0 4.946 1.812 9.236 5.427 12.861s7.906 5.438 12.861 5.427h256c4.946 0 9.226-1.813 12.861-5.427 3.625-3.614 5.427-7.895 5.427-12.861-0.010-4.946-1.822-9.236-5.427-12.861l-128-127.99c-3.625-3.625-7.905-5.438-12.862-5.438s-9.246 1.822-12.862 5.438l-128 127.99c-3.614 3.625-5.427 7.916-5.427 12.861z" horiz-adv-x="297" />
<glyph unicode="&#xe616;" d="M18.289 224c0 4.946 1.813 9.237 5.427 12.862l128 128c3.625 3.625 7.895 5.427 12.862 5.427s9.237-1.813 12.862-5.427c3.625-3.614 5.417-7.905 5.417-12.861v-256c0-4.946-1.802-9.236-5.417-12.861s-7.895-5.438-12.862-5.427-9.237 1.813-12.862 5.427l-128 128c-3.614 3.625-5.427 7.906-5.427 12.862z" horiz-adv-x="185" />
<glyph unicode="&#xe617;" d="M0 96v256c0 4.946 1.813 9.236 5.427 12.861 3.625 3.625 7.906 5.438 12.862 5.427s9.237-1.813 12.862-5.427l128-128c3.625-3.614 5.427-7.905 5.427-12.862s-1.813-9.236-5.427-12.861l-128-128c-3.625-3.625-7.906-5.427-12.862-5.427s-9.247 1.813-12.862 5.427c-3.615 3.625-5.427 7.906-5.427 12.861z" horiz-adv-x="185" />
<glyph unicode="&#xe618;" d="M0 132.557c0 4.956 1.813 9.236 5.427 12.872l128 128c3.625 3.614 7.905 5.427 12.862 5.427s9.237-1.813 12.862-5.427l128-128c3.625-3.625 5.427-7.906 5.427-12.872 0-4.946-1.813-9.236-5.427-12.861-3.625-3.615-7.906-5.417-12.861-5.417h-256c-4.946 0-9.237 1.813-12.862 5.417-3.625 3.625-5.427 7.916-5.427 12.861z" horiz-adv-x="297" />
<glyph unicode="&#xe619;" d="M192 7.998c0-21.995-18.002-39.998-39.998-39.998h-16.005c-21.995 0-39.998 18.002-39.998 39.998v16.005c0 21.995 18.002 39.998 39.998 39.998h16.005c21.995 0 39.998-18.002 39.998-39.998v-16.005zM480 7.998c0-21.995-18.002-39.998-39.998-39.998h-16.005c-21.995 0-39.998 18.002-39.998 39.998v16.005c0 21.995 18.002 39.998 39.998 39.998h16.005c21.995 0 39.998-18.002 39.998-39.998v-16.005zM423.609 192c17.603 0 35.952 13.844 40.786 30.771l46.397 162.468c4.844 16.926-5.611 30.771-23.214 30.771h-327.588c0 35.349-28.652 64-64 64h-96v-64h96v-272.005c0-26.501 21.494-48.005 48.005-48.005h304.005c17.685 0 32 14.315 32 32s-14.315 32-32 32h-288v32h263.609zM160 287.519h120.658v-31.519h-120.658v31.519zM421.97 256h-111.514v31.519h120.525l-9.011-31.519zM439.491 317.317h-129.034v34.683h138.937l-9.902-34.683zM280.658 352v-34.683h-120.658v34.683h120.658z" />
<glyph unicode="&#xe61a;" d="M487.629 253.379h-53.248l-137.493 146.146c0.686 2.98 1.065 6.093 1.065 9.349 0 23.153-18.76 41.913-41.923 41.913-23.225 0-41.984-18.77-41.984-41.913 0-3.257 0.358-6.369 1.065-9.349l-137.493-146.146h-53.248c-25.989 0-26.266-66.98 2.765-65.925l24.781-131.482c6.656-35.205 21.453-58.757 58.051-58.757h292.045c36.608 0 51.405 23.582 58.061 58.757l24.781 131.481c29.051-1.055 28.754 65.925 2.775 65.925zM249.17 367.442c4.526-0.697 9.134-0.697 13.66 0l107.407-114.064h-228.485l107.418 114.064zM99.359 56.842l-19.118 100.485c-5.878 30.997 40.919 39.916 46.869 8.919l19.118-100.485c5.878-30.997-40.919-39.946-46.869-8.919zM188.99 58.736l-7.721 101.959c-2.406 31.519 45.168 35.051 47.504 3.615l7.721-102.021c2.406-31.426-45.168-35.041-47.504-3.553zM323.082 58.736c-2.396-31.488-49.981-27.884-47.575 3.553l7.721 102.021c2.345 31.437 49.92 27.914 47.514-3.615l-7.659-101.959zM431.76 157.317l-19.118-100.485c-5.858-31.017-52.736-22.077-46.858 8.919l19.108 100.485c5.95 31.007 52.746 22.087 46.868-8.919z" />
<glyph unicode="&#xe61b;" d="M432.005 416l-240.005-240.005-112.005 112.005-80.005-80.005 192-192 320 320z" />
<glyph unicode="&#xe61c;" d="M44.002 242.289q0 7.424 5.427 12.862l211.999 211.999q5.427 5.427 12.861 5.427t12.861-5.427l47.432-47.432q5.427-5.427 5.427-12.861t-5.427-12.861l-151.716-151.716 151.716-151.716q5.427-5.427 5.427-12.861t-5.427-12.861l-47.432-47.432q-5.427-5.427-12.861-5.427t-12.861 5.427l-211.999 211.999q-5.427 5.427-5.427 12.862z" horiz-adv-x="369" />
<glyph unicode="&#xe61d;" d="M76.688 385.25c5.386 0 10.055-1.956 14.019-5.909l165.284-165.294 165.294 165.284c3.932 3.952 8.601 5.909 13.998 5.909s10.066-1.956 14.029-5.909l51.661-51.671c3.952-3.952 5.909-8.622 5.909-14.019s-1.966-10.055-5.909-14.008l-230.963-230.953c-3.952-3.952-8.612-5.909-14.009-5.909s-10.066 1.976-14.008 5.909l-230.963 230.953c-3.953 3.952-5.909 8.612-5.909 14.009s1.966 10.076 5.909 14.019l51.671 51.671c3.952 3.953 8.622 5.909 14.018 5.909h-0.031z" />
<glyph unicode="&#xe61e;" d="M25.713 77.712q0 7.424 5.427 12.861l151.716 151.716-151.716 151.716q-5.427 5.427-5.427 12.861t5.427 12.862l47.432 47.431q5.427 5.427 12.862 5.427t12.862-5.427l211.999-211.998q5.427-5.427 5.427-12.862t-5.427-12.862l-211.999-211.999q-5.427-5.427-12.862-5.427t-12.862 5.427l-47.432 47.432q-5.427 5.427-5.427 12.861z" horiz-adv-x="369" />
<glyph unicode="&#xe61f;" d="M435.303 62.761c-5.376 0-10.055 1.956-13.998 5.898l-165.305 165.274-165.284-165.263c-3.953-3.942-8.602-5.898-13.998-5.898-5.406 0-10.076 1.956-14.019 5.898l-51.682 51.682c-3.943 3.942-5.898 8.612-5.898 14.009s1.956 10.066 5.898 14.009l230.974 230.963c3.952 3.942 8.612 5.898 14.008 5.898s10.066-1.966 14.019-5.898l230.943-230.973c3.963-3.942 5.918-8.612 5.918-14.009s-1.976-10.066-5.918-14.029l-51.671-51.661c-3.952-3.973-8.601-5.898-14.009-5.898h0.021z" />
<glyph unicode="&#xe620;" d="M507.331 68.67c0 0 0 0-0.010 0l-155.32 155.32 155.321 155.321c0 0 0 0 0.010 0 1.669 1.669 2.877 3.625 3.656 5.703 2.119 5.683 0.911 12.339-3.666 16.917l-73.37 73.369c-4.577 4.577-11.223 5.786-16.916 3.656-2.079-0.778-4.034-1.986-5.714-3.656 0 0 0 0 0 0l-155.321-155.33-155.321 155.321c0 0 0 0 0 0-1.669 1.669-3.625 2.877-5.704 3.655-5.694 2.12-12.339 0.911-16.917-3.655l-73.37-73.37c-4.578-4.577-5.786-11.223-3.666-16.917 0.778-2.078 1.987-4.034 3.655-5.703 0 0 0 0 0 0l155.321-155.321-155.321-155.331c0 0 0 0 0 0-1.669-1.669-2.878-3.625-3.656-5.704-2.12-5.683-0.912-12.339 3.666-16.916l73.369-73.37c4.578-4.577 11.223-5.785 16.917-3.666 2.079 0.778 4.034 1.986 5.704 3.656 0 0 0 0 0 0l155.321 155.321 155.321-155.321c0 0 0 0 0.010 0 1.669-1.669 3.625-2.877 5.704-3.656 5.694-2.119 12.339-0.911 16.916 3.666l73.37 73.37c4.577 4.577 5.785 11.223 3.666 16.916-0.778 2.079-1.986 4.034-3.656 5.704z" />
<glyph unicode="&#xe621;" d="M0 86.856v274.289q0 33.997 24.146 58.142t58.143 24.146h274.289q33.997 0 58.142-24.146t24.146-58.142v-274.289q0-33.997-24.146-58.142t-58.142-24.146h-54.856v173.712h58l8.571 64h-66.57v40.858q0 15.431 7.998 23.716t27.433 8.284l37.714 0.286v59.146q-27.433 2.57-51.426 2.57-38.861 0-62.29-22.999t-23.429-64.43v-47.432h-64v-64h64v-173.712h-155.433q-33.997 0-58.143 24.146t-24.146 58.142z" />
<glyph unicode="&#xe622;" d="M0 86.856v274.289q0 33.997 24.146 58.142t58.143 24.146h274.289q33.997 0 58.142-24.146t24.146-58.142v-274.289q0-33.997-24.146-58.142t-58.142-24.146h-274.289q-33.997 0-58.143 24.146t-24.146 58.142zM73.145 122.86q42.281-26.86 91.996-26.86 32 0 59.996 10.148t48.005 27.146 34.427 39.147 21.433 46.285 7.004 48.138q0 5.14-0.286 7.71 18.002 12.862 30.003 31.14-16.005-7.147-34.57-9.718 19.426 11.428 26.573 33.434-18.575-10.854-38.288-14.572-17.428 18.862-43.714 18.862-24.852 0-42.424-17.572t-17.572-42.425q0-8.284 1.434-13.712-36.854 1.997-69.141 18.575t-54.856 44.288q-8.284-14.285-8.284-30.29 0-32.574 25.999-50.002-13.424 0.286-28.57 7.424v-0.573q0-21.433 14.285-38.144t35.143-20.716q-8.284-2.284-14.572-2.284-3.717 0-11.141 1.147 6.001-18.002 21.289-29.716t34.713-12.002q-33.147-25.712-74.568-25.712-7.424 0-14.285 0.86z" />
<glyph unicode="&#xe623;" d="M0 86.856v274.289q0 33.997 24.146 58.142t58.143 24.146h274.289q33.997 0 58.142-24.146t24.146-58.142v-274.289q0-33.997-24.146-58.142t-58.142-24.146h-274.289q-33.997 0-58.143 24.146t-24.146 58.142zM78.858 129.433q0-12.288 5.284-22.139t13.855-16.138 19.712-10.567 22.139-6 21.852-1.71q17.142 0 34.427 4.423t32.43 13.138 24.576 23.572 9.431 33.433q0 13.998-5.714 25.57t-13.998 18.995-16.569 13.568-13.998 12.575-5.714 12.718 4.423 12.144 10.711 11.285 12.575 12.001 10.711 16.999 4.423 23.572q0 17.142-6.43 28.426t-20.715 25.856h23.716l25.139 18.289h-75.714q-24.29 0-45.998-9.144t-36.423-27.996-14.715-43.714q0-26.573 18.432-44.144t45.282-17.572q6.287 0 12.288 0.86-3.717-8.284-3.717-15.431 0-12.575 11.428-26.86-50.002-3.43-73.431-18.002-13.424-8.284-21.576-20.859t-8.141-27.146zM112.855 137.718q0 13.138 7.147 22.856t18.719 14.715 23.429 7.147 24.146 2.14q5.714 0 8.857-0.574 0.573-0.286 6.574-4.711t7.424-5.427 6.574-5.14 7.004-6.288 5.427-6.43 4.854-7.424 2.57-7.567 1.29-9.001q0-21.719-16.712-32.144t-39.854-10.425q-11.714 0-22.999 2.714t-21.576 8.141-16.569 15.145-6.287 22.282zM132.004 318.003q0 17.428 9.144 29.716t26.286 12.288q15.145 0 26.716-12.862t16.569-28.856 4.997-30.567q0-17.142-9.431-28.426t-26.286-11.285q-15.145 0-26.573 12.144t-16.425 27.577-4.997 30.29zM274.289 233.145h36.567v-45.712h18.289v45.712h36.567v18.289h-36.567v36.567h-18.289v-36.567h-36.567v-18.289z" />
<glyph unicode="&#xe624;" d="M0 346.573q0 26.286 14.572 53.146 16.005 28.856 30.29 34.857 7.148 3.143 19.569 6t20.142 2.857q4.004 0 6.001-0.86 5.141-1.71 15.145-21.719 3.144-5.427 8.571-15.431t10.005-18.145 8.857-15.288q0.86-1.147 4.997-7.148t6.144-10.148 1.997-8.141q0-5.714-8.141-14.285t-17.715-15.719-17.715-15.145-8.141-13.138q0-2.57 1.433-6.43t2.427-5.858 4.004-6.861 3.287-5.427q21.719-39.148 49.715-67.144t67.143-49.715q0.573-0.286 5.427-3.287t6.861-4.004 5.857-2.427 6.43-1.433q5.141 0 13.138 8.141t15.145 17.715 15.719 17.715 14.285 8.141q4.004 0 8.141-1.997t10.148-6.144 7.147-4.997q7.147-4.291 15.288-8.858t18.145-10.005 15.432-8.571q19.998-10.005 21.719-15.145 0.86-1.997 0.86-6 0-7.711-2.857-20.142t-6-19.569q-6-14.285-34.857-30.29-26.86-14.572-53.145-14.572-7.711 0-15.002 1.003t-16.425 3.574-13.568 4.147-15.862 5.858-13.998 5.14q-27.996 10.005-50.002 23.716-36.567 22.569-75.571 61.573t-61.573 75.571q-13.712 21.995-23.716 50.002-0.86 2.57-5.14 13.998t-5.858 15.862-4.147 13.568-3.574 16.425-1.004 15.001z" horiz-adv-x="400" />
<glyph unicode="&#xe625;" d="M0 86.856v118.856q0 22.569 16.138 38.718t38.718 16.138h18.289v155.433q0 11.428 7.998 19.426t19.426 7.998h192q11.428 0 25.139-5.714t21.719-13.712l43.428-43.428q7.998-7.998 13.712-21.719t5.714-25.139v-73.145h18.289q22.569 0 38.717-16.138t16.138-38.718v-118.856q0-3.717-2.714-6.43t-6.43-2.714h-64v-45.712q0-11.428-7.998-19.426t-19.426-7.998h-274.289q-11.428 0-19.426 7.998t-7.998 19.426v45.712h-64q-3.717 0-6.431 2.714t-2.714 6.43zM109.712 41.144h256v73.145h-256v-73.145zM109.712 224h256v109.712h-45.712q-11.428 0-19.426 7.998t-7.998 19.426v45.712h-182.856v-182.856zM402.289 205.712q0-7.424 5.427-12.861t12.861-5.427 12.861 5.427 5.427 12.861-5.427 12.861-12.861 5.427-12.861-5.427-5.427-12.861z" horiz-adv-x="471" />
<glyph unicode="&#xe626;" d="M0 242.289q0 40.858 15.862 78.142t42.855 64.286 64.287 42.855 78.141 15.862 78.142-15.862 64.286-42.855 42.855-64.286 15.862-78.142q0-62.853-35.43-114.002l97.997-97.997q10.567-10.567 10.567-25.712 0-14.858-10.854-25.712t-25.712-10.854q-15.432 0-25.712 10.854l-97.997 97.71q-51.139-35.43-114.002-35.43-40.858 0-78.142 15.862t-64.287 42.854-42.855 64.286-15.862 78.142zM73.145 242.289q0-52.859 37.571-90.43t90.429-37.57 90.43 37.57 37.57 90.43-37.57 90.43-90.43 37.57-90.43-37.57-37.57-90.43z" horiz-adv-x="471" />
<glyph unicode="&#xe627;" d="M512 281.477l-176.886 25.703-79.114 160.287-79.104-160.287-176.896-25.702 128-124.764-30.218-176.179 158.218 83.18 158.218-83.18-30.218 176.179 128 124.764zM256 103.25l-111.729-58.736 21.34 124.416-90.389 88.115 124.918 18.156 55.87 113.193 55.87-113.193 124.918-18.156-90.399-88.115 21.34-124.416-111.729 58.736z" />
<glyph unicode="&#xe628;" d="M256 467.466l-79.104-160.287-176.896-25.702 128-124.754-30.218-176.179 158.218 83.18z" />
<glyph unicode="&#xe629;" d="M512 281.477l-176.886 25.703-79.114 160.287-79.104-160.287-176.896-25.702 128-124.764-30.218-176.179 158.218 83.18 158.218-83.18-30.218 176.179 128 124.764z" />
<glyph unicode="&#xe62a;" d="M493.845 469.607c-2.765 8.059-11.5 12.309-19.476 9.523s-12.185-11.623-9.39-19.712c23.552-68.352-23.194-119.399-58.798-146.709l-14.418 20.839c-4.813 6.963-15.667 12.779-24.064 12.903l-80.763-0.379c-8.397 0.123-20.889-3.758-27.801-8.622l-237.978-168.653c-11.52-8.171-14.357-24.238-6.267-35.922l108.186-156.334c8.059-11.674 21.043-10.261 32.563-2.13l237.978 168.684c6.912 4.864 14.766 15.462 17.562 23.501l25.293 80.538c2.734 8.038 1.075 20.327-3.738 27.29l-8.806 12.697c47.851 36.987 97.515 102.451 69.939 182.508zM383.13 230.093c-18.452-13.076-43.879-8.53-56.812 10.137-12.902 18.667-8.428 44.391 10.035 57.477 14.643 10.394 33.659 9.625 47.36-0.461-6.912-4.198-11.623-6.605-12.524-7.045-7.629-3.635-10.906-12.851-7.291-20.583 2.611-5.612 8.089-8.909 13.844-8.909 2.171 0 4.403 0.492 6.502 1.485 4.885 2.325 10.189 5.171 15.698 8.469 2.457-15.186-3.533-31.15-16.814-40.571z" />
<glyph unicode="&#xe62b;" d="M0 68.567v54.856q0 11.428 7.998 19.426t19.426 7.998h91.433q11.428 0 19.425-7.998t7.998-19.426v-54.856q0-11.428-7.998-19.426t-19.426-7.998h-91.433q-11.428 0-19.426 7.998t-7.998 19.426zM0 214.856v54.856q0 11.428 7.998 19.426t19.426 7.998h91.433q11.428 0 19.425-7.998t7.998-19.426v-54.856q0-11.428-7.998-19.426t-19.426-7.998h-91.433q-11.428 0-19.426 7.998t-7.998 19.426zM0 361.145v54.856q0 11.428 7.998 19.426t19.426 7.998h91.433q11.428 0 19.425-7.998t7.998-19.426v-54.856q0-11.428-7.998-19.426t-19.426-7.998h-91.433q-11.428 0-19.426 7.998t-7.998 19.426zM182.856 68.567v54.856q0 11.428 7.998 19.426t19.426 7.998h91.433q11.428 0 19.426-7.998t7.998-19.426v-54.856q0-11.428-7.998-19.426t-19.426-7.998h-91.433q-11.428 0-19.426 7.998t-7.998 19.426zM182.856 214.856v54.856q0 11.428 7.998 19.426t19.426 7.998h91.433q11.428 0 19.426-7.998t7.998-19.426v-54.856q0-11.428-7.998-19.426t-19.426-7.998h-91.433q-11.428 0-19.426 7.998t-7.998 19.426zM182.856 361.145v54.856q0 11.428 7.998 19.426t19.426 7.998h91.433q11.428 0 19.426-7.998t7.998-19.426v-54.856q0-11.428-7.998-19.426t-19.426-7.998h-91.433q-11.428 0-19.426 7.998t-7.998 19.426zM365.712 68.567v54.856q0 11.428 7.998 19.426t19.426 7.998h91.433q11.428 0 19.426-7.998t7.998-19.426v-54.856q0-11.428-7.998-19.426t-19.426-7.998h-91.433q-11.428 0-19.426 7.998t-7.998 19.426zM365.712 214.856v54.856q0 11.428 7.998 19.426t19.426 7.998h91.433q11.428 0 19.426-7.998t7.998-19.426v-54.856q0-11.428-7.998-19.426t-19.426-7.998h-91.433q-11.428 0-19.426 7.998t-7.998 19.426zM365.712 361.145v54.856q0 11.428 7.998 19.426t19.426 7.998h91.433q11.428 0 19.426-7.998t7.998-19.426v-54.856q0-11.428-7.998-19.426t-19.426-7.998h-91.433q-11.428 0-19.426 7.998t-7.998 19.426z" />
<glyph unicode="&#xe62c;" d="M0 68.567v54.856q0 11.428 7.998 19.426t19.426 7.998h91.433q11.428 0 19.425-7.998t7.998-19.426v-54.856q0-11.428-7.998-19.426t-19.426-7.998h-91.433q-11.428 0-19.426 7.998t-7.998 19.426zM0 214.856v54.856q0 11.428 7.998 19.426t19.426 7.998h91.433q11.428 0 19.425-7.998t7.998-19.426v-54.856q0-11.428-7.998-19.426t-19.426-7.998h-91.433q-11.428 0-19.426 7.998t-7.998 19.426zM0 361.145v54.856q0 11.428 7.998 19.426t19.426 7.998h91.433q11.428 0 19.425-7.998t7.998-19.426v-54.856q0-11.428-7.998-19.426t-19.426-7.998h-91.433q-11.428 0-19.426 7.998t-7.998 19.426zM182.856 68.567v54.856q0 11.428 7.998 19.426t19.426 7.998h274.289q11.428 0 19.426-7.998t7.998-19.426v-54.856q0-11.428-7.998-19.426t-19.426-7.998h-274.289q-11.428 0-19.426 7.998t-7.998 19.426zM182.856 214.856v54.856q0 11.428 7.998 19.426t19.426 7.998h274.289q11.428 0 19.426-7.998t7.998-19.426v-54.856q0-11.428-7.998-19.426t-19.426-7.998h-274.289q-11.428 0-19.426 7.998t-7.998 19.426zM182.856 361.145v54.856q0 11.428 7.998 19.426t19.426 7.998h274.289q11.428 0 19.426-7.998t7.998-19.426v-54.856q0-11.428-7.998-19.426t-19.426-7.998h-274.289q-11.428 0-19.426 7.998t-7.998 19.426z" />
<glyph unicode="&#xe62d;" d="M86.764 277.453l28.211-248.555c1.516-11.796 58.501-50.606 141.036-50.668 82.534 0.051 139.541 38.861 141.056 50.668l28.211 248.556c-43.111-24.115-107.541-35.533-169.267-35.533s-126.157 11.417-169.237 35.533zM337.070 431.053l-21.995 24.402c-8.469 12.053-17.685 14.315-35.635 14.315h-46.899c-17.92 0-27.136-2.253-35.635-14.315l-21.965-24.402c-65.792-11.5-113.511-41.984-113.511-64.461v-4.373c0-39.577 87.091-71.68 194.56-71.68s194.56 32.102 194.56 71.68v4.373c0 22.477-47.698 52.971-113.49 64.461zM308.972 374.037l-32.051 34.284h-41.831l-32.051-34.284h-43.52c0 0 47.667 56.832 54.036 64.532 4.864 5.888 9.851 8.141 16.302 8.141h52.306c6.451 0 11.418-2.253 16.302-8.141 6.349-7.7 54.036-64.532 54.036-64.532h-43.541z" />
<glyph unicode="&#xe62e;" d="M1.536 67.267c0 9.954 0.328 19.651 0.994 29.133 0.656 9.472 1.966 19.702 3.942 30.669 1.966 10.967 4.455 21.156 7.455 30.536 3 9.37 7.035 18.534 12.104 27.443 5.069 8.899 10.885 16.507 17.449 22.794s14.582 11.305 24.064 15.063c9.482 3.748 19.948 5.632 31.376 5.632 1.689 0 5.632-2.018 11.827-6.062 6.185-4.034 13.179-8.53 20.972-13.497 7.782-4.966 17.91-9.472 30.393-13.507 12.472-4.034 24.996-6.052 37.571-6.052s25.098 2.017 37.571 6.052c12.472 4.045 22.599 8.54 30.392 13.507s14.786 9.472 20.971 13.497c6.195 4.045 10.137 6.062 11.817 6.062 11.449 0 21.914-1.884 31.385-5.632 9.472-3.758 17.49-8.765 24.064-15.063 6.574-6.277 12.38-13.885 17.438-22.794 5.069-8.909 9.113-18.074 12.124-27.443 3-9.38 5.488-19.569 7.454-30.536s3.277-21.197 3.942-30.669c0.666-9.482 1.003-19.18 0.993-29.133 0-22.507-6.841-40.295-20.551-53.33-13.701-13.026-31.887-19.548-54.589-19.548h-245.986c-22.702 0-40.899 6.523-54.6 19.548-13.691 13.036-20.542 30.822-20.542 53.33h-0.030zM91.607 345.539c0 29.829 10.558 55.296 31.662 76.411s46.572 31.662 76.401 31.662c29.819 0 55.296-10.547 76.401-31.662 21.115-21.115 31.673-46.582 31.673-76.411s-10.558-55.296-31.673-76.411c-21.105-21.115-46.582-31.652-76.401-31.652-29.829 0-55.296 10.537-76.401 31.652s-31.662 46.582-31.662 76.411z" horiz-adv-x="400" />
<glyph unicode="&#xe62f;" d="M51.927 395.274h197.294c13.281 0 24.166-10.885 24.166-24.166v-187.658h-245.637v187.648c0 13.292 10.885 24.177 24.177 24.177v0zM15.667 159.283h98.448c-13.968-8.56-24.74-21.904-29.983-37.693h-68.465c-5.817 0-10.547 4.731-10.547 10.547v16.579c0 5.827 4.731 10.567 10.547 10.567v0zM496.272 159.283h-12.032v78.766c0 14.080-1.382 19.958-10.137 30.955l-47.431 59.515c-8.325 10.425-17.899 24.166-31.191 24.166h-73.697c-13.342 0-24.218-10.823-24.218-24.166v-169.237h-110.541c14.029-8.56 24.74-21.904 30.044-37.693h107.408c9.216 27.822 35.44 47.954 66.437 47.954 30.955 0 57.18-20.122 66.468-47.944h38.882c5.806 0 10.599 4.731 10.599 10.537v16.579c0.010 5.827-4.782 10.567-10.588 10.567zM354.212 254.638v59.802h44.124l47.657-59.802h-91.781zM390.933 146.217c-25.825 0-46.807-20.921-46.786-46.745 0-25.815 20.982-46.725 46.786-46.725 25.825 0 46.745 20.921 46.745 46.725 0 25.825-20.921 46.745-46.745 46.745zM390.933 80.538c-10.466 0-18.985 8.478-18.985 18.923 0 10.496 8.489 18.985 18.985 18.985 10.455 0 18.934-8.478 18.934-18.985-0.010-10.445-8.489-18.923-18.934-18.923zM150.6 146.217c-25.826 0-46.797-20.921-46.797-46.745 0-25.815 20.971-46.725 46.797-46.725s46.745 20.921 46.745 46.725c0 25.825-20.921 46.745-46.745 46.745zM150.6 80.538c-10.486 0-18.985 8.478-18.985 18.923 0 10.496 8.499 18.985 18.985 18.985 10.435 0 18.923-8.478 18.923-18.985 0-10.445-8.499-18.923-18.923-18.923z" />
<glyph unicode="&#xe630;" d="M5.12 252.488v-172.411c0-20.439 16.722-37.161 37.161-37.161h427.438c20.439 0 37.161 16.722 37.161 37.161v172.411h-501.76zM86.006 108.697c0-4.219-1.731-8.059-4.588-10.896-2.724-2.734-6.564-4.577-10.895-4.577h-9.165c-4.331 0-8.172 1.863-10.895 4.577-2.846 2.837-4.587 6.676-4.587 10.896v29.973c0 4.332 1.73 8.171 4.587 10.885 2.714 2.846 6.554 4.577 10.895 4.577h9.165c4.332 0 8.171-1.731 10.895-4.577 2.847-2.734 4.588-6.676 4.588-10.885v-29.973zM132.578 108.697c0-4.219-1.731-8.059-4.464-10.896-2.847-2.734-6.686-4.577-10.895-4.577h-9.287c-4.209 0-8.171 1.863-10.895 4.577-2.847 2.837-4.578 6.676-4.578 10.896v29.973c0 4.332 1.731 8.171 4.578 10.885 2.837 2.846 6.677 4.577 10.895 4.577h9.287c4.209 0 8.049-1.731 10.895-4.577 2.724-2.734 4.464-6.676 4.464-10.885v-29.973zM179.262 108.697c0-4.219-1.731-8.059-4.588-10.896-2.846-2.734-6.686-4.577-10.895-4.577h-9.287c-4.208 0-8.048 1.863-10.895 4.577-2.846 2.837-4.577 6.676-4.577 10.896v29.973c0 4.332 1.731 8.171 4.577 10.885 2.846 2.846 6.686 4.577 10.895 4.577h9.287c4.219 0 8.059-1.731 10.895-4.577 2.846-2.734 4.588-6.676 4.588-10.885v-29.973zM243.671 108.697c0-4.219-1.731-8.059-4.588-10.896-2.724-2.734-6.564-4.577-10.895-4.577h-9.287c-4.208 0-8.048 1.863-10.895 4.577-2.724 2.837-4.464 6.676-4.464 10.896v29.973c0 4.332 1.731 8.171 4.464 10.885 2.846 2.846 6.686 4.577 10.895 4.577h9.287c4.208 0 8.048-1.731 10.895-4.577 2.846-2.734 4.588-6.676 4.588-10.885v-29.973zM290.263 108.697c0-4.219-1.731-8.059-4.577-10.896h0.133c-2.846-2.734-6.687-4.577-11.018-4.577h-9.175c-4.342 0-8.171 1.863-10.895 4.577-2.846 2.837-4.588 6.676-4.588 10.896v29.973c0 4.332 1.731 8.171 4.588 10.885 2.703 2.846 6.656 4.577 10.885 4.577h9.175c4.332 0 8.171-1.731 10.896-4.577h0.123c2.734-2.734 4.464-6.676 4.464-10.885v-29.973zM336.825 108.697c0-4.219-1.741-8.059-4.475-10.896-2.846-2.734-6.687-4.577-10.885-4.577h-9.298c-4.199 0-8.161 1.863-10.885 4.577-2.826 2.837-4.567 6.676-4.567 10.896v29.973c0 4.332 1.741 8.171 4.567 10.885 2.846 2.846 6.687 4.577 10.885 4.577h9.298c4.199 0 8.038-1.731 10.885-4.577 2.734-2.734 4.475-6.676 4.475-10.885v-29.973zM321.465 141.015h-9.277c-0.625 0-1.239-0.236-1.608-0.635v0c-0.491-0.491-0.738-1.106-0.738-1.731v-29.973c0-0.635 0.246-1.239 0.738-1.608 0.368-0.502 1.003-0.748 1.608-0.748h9.277c0.635 0 1.239 0.246 1.608 0.748v0c0.512 0.368 0.738 1.003 0.738 1.608v29.973c0 0.738-0.226 1.239-0.738 1.731v0c-0.368 0.389-0.993 0.635-1.608 0.635v0zM274.77 141.015h-9.175c-0.748 0-1.239-0.236-1.741-0.635v0c-0.358-0.491-0.625-1.106-0.625-1.731v-29.973c0-0.635 0.236-1.239 0.625-1.608 0.502-0.502 1.116-0.748 1.741-0.748h9.175c0.727 0 1.239 0.246 1.731 0.748v0c0.368 0.368 0.625 1.003 0.625 1.608v29.973c0 0.738-0.236 1.239-0.625 1.731v0c-0.491 0.389-1.003 0.635-1.731 0.635v0zM228.199 141.015h-9.287c-0.625 0-1.239-0.236-1.607-0.635v0c-0.369-0.491-0.625-1.106-0.625-1.731v-29.973c0-0.635 0.246-1.239 0.625-1.608 0.492-0.502 0.994-0.748 1.607-0.748h9.287c0.625 0 1.239 0.246 1.607 0.748h0.123c0.369 0.368 0.625 1.003 0.625 1.608v29.973c0 0.738-0.246 1.239-0.625 1.731h-0.123c-0.369 0.389-0.994 0.635-1.607 0.635v0zM163.789 141.015h-9.287c-0.614 0-1.239-0.236-1.607-0.635v0c-0.492-0.491-0.738-1.106-0.738-1.731v-29.973c0-0.635 0.246-1.239 0.738-1.608 0.379-0.502 0.994-0.748 1.607-0.748h9.287c0.625 0 1.239 0.246 1.618 0.748v0c0.492 0.368 0.738 1.003 0.738 1.608v29.973c0 0.738-0.246 1.239-0.738 1.731v0c-0.379 0.389-1.004 0.635-1.618 0.635v0zM117.218 141.015h-9.287c-0.624 0-1.239-0.236-1.608-0.635v0c-0.492-0.491-0.737-1.106-0.737-1.731v-29.973c0-0.635 0.246-1.239 0.737-1.608 0.368-0.502 0.993-0.748 1.608-0.748h9.287c0.624 0 1.239 0.246 1.608 0.748v0c0.379 0.368 0.748 1.003 0.748 1.608v29.973c0 0.738-0.368 1.239-0.748 1.731v0c-0.368 0.389-0.993 0.635-1.608 0.635v0zM70.523 141.015h-9.165c-0.748 0-1.239-0.236-1.73-0.635v0c-0.368-0.491-0.624-1.106-0.624-1.731v-29.973c0-0.635 0.246-1.239 0.624-1.608 0.492-0.502 0.993-0.748 1.73-0.748h9.165c0.748 0 1.239 0.246 1.731 0.748v0c0.368 0.368 0.624 1.003 0.624 1.608v29.973c0 0.738-0.246 1.239-0.624 1.731v0c-0.492 0.389-0.993 0.635-1.731 0.635v0zM42.281 405.084h427.438c20.439 0 37.161-16.722 37.161-37.161v-44.216h-501.76v44.216c0 20.439 16.722 37.161 37.161 37.161v0z" />
<glyph unicode="&#xe631;" d="M245.33 117.647c0 6.564 0.215 12.964 0.655 19.221 0.43 6.257 1.3 12.995 2.611 20.234 1.28 7.24 2.918 13.967 4.905 20.183 1.987 6.185 4.659 12.216 8.008 18.105 3.318 5.878 7.158 10.885 11.52 15.033 4.332 4.168 9.605 7.465 15.872 9.943s13.148 3.727 20.716 3.727c1.116 0 3.707-1.331 7.793-4.004s8.714-5.642 13.865-8.899c5.12-3.298 11.817-6.267 20.039-8.93 2.887-0.932 5.765-1.69 8.694-2.325l8.377-19.692-28.723-66.212 36.464-29.164 36.454 29.164-28.754 66.212 8.407 19.692c2.887 0.635 5.796 1.392 8.694 2.325 8.223 2.663 14.889 5.632 20.039 8.93 5.151 3.257 9.779 6.226 13.865 8.899s6.666 4.004 7.793 4.004c7.567 0 14.459-1.249 20.716-3.727s11.541-5.765 15.872-9.943c4.362-4.137 8.171-9.154 11.52-15.033s6.021-11.919 7.998-18.105c1.986-6.205 3.625-12.943 4.905-20.183 1.3-7.24 2.171-13.967 2.611-20.234 0.43-6.257 0.645-12.656 0.645-19.221 0-14.868-4.516-26.603-13.558-35.205s-21.043-12.913-36.055-12.913h-162.335c-14.981 0-26.983 4.311-36.055 12.913-9.042 8.612-13.558 20.337-13.558 35.205v0zM304.773 301.302c0 19.691 6.974 36.516 20.91 50.432 13.906 13.936 30.74 20.91 50.432 20.91 19.651 0 36.485-6.974 50.422-20.91 13.916-13.906 20.889-30.74 20.889-50.432 0-19.681-6.974-36.485-20.889-50.432-13.937-13.936-30.771-20.88-50.422-20.88-19.692 0-36.516 6.942-50.432 20.88-13.947 13.947-20.91 30.75-20.91 50.432v0zM206.336 352.441h-201.216v-275.057h201.216v275.057zM19.528 338.033h172.411v-246.221h-172.411v246.221zM105.728 378.471c9.011 0 16.579-6.206 18.678-14.572h19.139v-30.884h-75.633v30.884h19.17c2.089 8.366 9.636 14.572 18.647 14.572v0zM105.728 365.476c3.481 0 6.287-2.796 6.287-6.257s-2.806-6.287-6.287-6.287c-3.461 0-6.257 2.826-6.257 6.287s2.796 6.257 6.257 6.257v0zM47.411 273.070h1.628l-1.628-1.638v1.638zM100.752 273.070h63.304v-41.584h-116.644v34.028l12.472-12.473v-11.079h20.603v10.998l20.265 20.112zM106.271 283.577l-36.076-35.748-20.633 20.644 10.179 10.178 10.506-10.506 25.897 25.61zM47.411 187.71h1.628l-1.628-1.639v1.639zM100.752 187.71h63.304v-41.584h-116.644v34.028l12.472-12.473v-11.079h20.603v11.029l20.265 20.081zM106.271 198.216l-36.076-35.728-5.058 5.038-15.575 15.575 10.179 10.209 10.506-10.526 25.897 25.641z" />
<glyph unicode="&#xe632;" d="M1427.088 241.775c-0.203 22.592-1.959 42.050-6.631 59.883-5.703 21.721-15.642 40.73-31.937 59.216-14.206 16.077-32.474 29.513-52.715 38.901-19.806 9.127-41.339 14.409-62.524 14.409h-44.241c-21.17 0-42.761-5.281-62.524-14.409-20.227-9.373-38.568-22.824-52.787-38.901-16.222-18.486-26.132-37.494-31.864-59.216-4.672-17.833-6.428-37.291-6.631-59.883-23.84-11.085-22.070-98.030 5.325-98.030h43.211c19.56-57.851 60.303-109.928 127.369-109.928 67.123 0 107.911 52.077 127.441 109.928h43.284c27.293 0 29.092 86.944 5.224 98.029zM1251.154 58.005c-41.179-0.014-70.46 25.363-89.512 59.201 5.906-2.524 12.058-4.788 18.617-6.616 13.668-3.86 28.701-6.24 44.938-7.458 4.339-7.647 14.322-13.074 25.958-13.001 15.642 0 28.28 9.721 28.28 21.707s-12.638 21.736-28.28 21.736c-12.159 0-22.534-5.949-26.524-14.205-14.539 1.161-27.947 3.308-40.047 6.689-13.291 3.671-24.87 8.909-34.534 15.7-10.157 26.075-15.395 54.442-16.106 79.181 29.324 5.819 54.195 22.81 62.524 81.111 36.333-48.493 71.998-43.24 105.154-66.253-1.089 10.549-4.469 18.994-8.604 26.307 31.56-3.178 56.734-20.010 75.467-38.51-1.147-68.038-36.391-165.588-117.328-165.588zM1391.771 242.921c-7.11 70.533-60.768 125.294-140.617 125.294-79.805 0-133.448-54.746-140.559-125.294h-11.201c0.174 20.024 1.843 37.218 5.862 52.642 4.745 17.935 13.059 33.765 26.756 49.349 11.956 13.567 27.525 24.942 44.72 32.923 16.643 7.719 34.737 12.174 52.367 12.174h44.241c17.63 0 35.724-4.455 52.396-12.174 17.166-7.981 32.749-19.356 44.735-32.923 13.697-15.584 21.968-31.414 26.713-49.349 3.991-15.424 5.645-32.618 5.862-52.642h-11.274zM1201.617 182.603c11.506 0 20.866 9.373 20.866 20.865 0 11.478-9.373 20.865-20.866 20.865s-20.866-9.373-20.866-20.865c-0.029-11.492 9.359-20.865 20.866-20.865v0zM1300.75 182.603c11.506 0 20.866 9.373 20.866 20.865 0 11.478-9.373 20.865-20.866 20.865s-20.866-9.373-20.866-20.865c-0.029-11.492 9.388-20.865 20.866-20.865v0zM824.401 403.591l119.678-167.968 8.402-11.623-8.402-11.623-119.678-167.968-32.691 23.26 111.452 156.331-111.452 156.317zM201.327 323.742h-69.257v94.576h24.159v-70.417h45.097zM144.128 472.716c-75.583 0-136.873-61.276-136.873-136.859s61.291-136.902 136.873-136.902 136.873 61.32 136.873 136.902-61.291 136.859-136.873 136.859zM144.128 230.878c-57.997 0-104.98 46.969-104.98 104.98 0 57.982 46.984 104.951 104.98 104.951s104.98-46.969 104.98-104.951c-0.014-58.011-46.983-104.98-104.98-104.98zM305.015 340.951h71.084c14.176 0 25.799-11.623 25.799-25.843v-200.282h-262.24v60.086c1.465-0.087 2.989-0.087 4.44-0.087 88.903 0 161.032 72.159 161.032 161.076 0 1.654-0.058 3.337-0.116 5.049v0zM126.76 89.014h105.096c-14.975-9.142-26.408-23.375-32.009-40.294h-73.087c-6.21 0-11.26 5.137-11.26 11.332v17.716c0 6.152 5.079 11.245 11.26 11.245v0zM639.862 89.014h-12.856v84.028c0 15.033-1.466 21.373-10.839 33.112l-50.698 63.511c-8.822 11.071-19.037 25.799-33.228 25.799h-78.746c-14.176 0-25.799-11.623-25.77-25.813v-180.635h-118.010c14.974-9.142 26.408-23.375 32.067-40.294h114.658c9.853 29.774 37.856 51.177 70.954 51.177 33.039 0 61.029-21.432 70.954-51.177h41.513c6.211 0 11.318 5.137 11.318 11.332v17.716c-0.029 6.152-5.136 11.245-11.318 11.245zM488.204 190.844v63.815h47.099l50.872-63.815h-97.971zM270.829 75.055c-27.569 0-49.973-22.317-49.958-49.885 0-27.54 22.404-49.885 49.958-49.885s49.9 22.331 49.9 49.885c0 27.569-22.346 49.885-49.9 49.885zM270.829 4.913c-11.187 0-20.256 9.069-20.256 20.256-0.014 11.216 9.054 20.256 20.256 20.256 11.144 0 20.212-9.039 20.212-20.256 0-11.187-9.069-20.256-20.212-20.256zM527.395 75.055c-27.569 0-49.972-22.317-49.958-49.885 0-27.54 22.404-49.885 49.958-49.885s49.9 22.331 49.9 49.885c0 27.569-22.331 49.885-49.9 49.885zM527.395 4.913c-11.187 0-20.256 9.069-20.256 20.256-0.014 11.216 9.054 20.256 20.256 20.256 11.144 0 20.212-9.039 20.212-20.256 0-11.187-9.069-20.256-20.212-20.256z" horiz-adv-x="1451" />
<glyph unicode="&#xe633;" d="M66.407 343.347v0c8.683 0 16.599-3.369 22.569-8.786v0l108.493-97.321c15.841-14.101-5.857-35.81-20.183-22.999l-77.578 69.55v-94.167c0-5.099 0.543-7.916 1.3-13.026l26.583-181.729c2.929-19.958-27.341-24.412-30.269-4.342l-31.355 159.027-30.372-159.048c-2.928-20.070-33.198-15.616-30.27 4.342l27.126 185.846c0.542 3.481 0.645 4.894 0.645 8.458v120.883c0 18.34 15.084 33.31 33.311 33.31v0zM63.795 372.746c27.013 0 48.926 21.914 48.926 48.937 0 26.901-21.914 48.825-48.927 48.825-26.901 0-48.825-21.914-48.825-48.825 0-27.013 21.924-48.937 48.825-48.937v0zM445.481 343.347v0c-8.571 0-16.476-3.369-22.457-8.786v0l-108.493-97.321c-15.841-14.101 5.858-35.81 20.194-22.999l77.578 69.55v-94.167c0-5.099-0.656-7.916-1.321-13.026l-26.583-181.729c-2.928-19.958 27.341-24.412 30.269-4.342l31.365 159.058 30.361-159.058c2.939-20.070 33.219-15.616 30.279 4.342l-27.115 185.856c-0.543 3.461-0.758 4.885-0.758 8.458v120.853c-0.010 18.34-14.981 33.31-33.321 33.31v0zM448.092 372.746c26.901 0 48.926 21.914 48.926 48.937 0 26.901-22.026 48.825-48.926 48.825-26.911 0-48.834-21.914-48.834-48.825 0-27.013 21.924-48.937 48.834-48.937v0zM284.693 373.299h-36.987v-13.568h-22.784v13.568h-36.997c-12.053 0-21.924-9.881-21.924-21.934v-64.768l60.109-53.924h58.583c12.053 0 21.934 9.881 21.934 21.924v96.778c-0.010 12.053-9.882 21.924-21.934 21.924zM247.696 300.595v-38.728h-22.784v38.728h-20.613l32 32 32.010-32h-20.613z" />
<glyph unicode="&#xe634;" d="M256 474.88c-110.818 0-200.704-89.876-200.704-200.704 0-74.291 40.366-139.131 100.352-173.844v-127.212l100.352 100.352c110.879 0 200.704 89.826 200.704 200.704 0 110.827-89.835 200.704-200.704 200.704zM271.033 164.383c-4.813-4.281-10.291-6.441-16.671-6.441-6.482 0-12.155 2.161-17.029 6.38-4.833 4.199-7.239 10.117-7.239 17.654 0 6.728 2.345 12.401 7.014 16.957 4.731 4.628 10.476 6.902 17.255 6.902 6.718 0 12.472-2.274 17.029-6.902 4.618-4.557 6.892-10.23 6.892-16.957-0.010-7.495-2.416-13.384-7.25-17.592zM320.43 303.114c-3.195-5.918-6.994-11.029-11.325-15.278-4.342-4.301-12.226-11.53-23.572-21.698-3.144-2.837-5.673-5.366-7.526-7.537-1.925-2.171-3.338-4.147-4.199-5.918-0.962-1.822-1.659-3.594-2.181-5.417-0.502-1.772-1.3-4.956-2.284-9.513-1.772-9.554-7.219-14.357-16.476-14.357-4.813 0-8.857 1.566-12.144 4.7-3.287 3.143-4.905 7.792-4.905 13.957 0 7.792 1.208 14.469 3.594 20.132 2.427 5.714 5.571 10.67 9.564 14.971 3.952 4.301 9.36 9.411 16.087 15.278 5.858 5.161 10.158 9.104 12.79 11.684 2.632 2.683 4.874 5.56 6.676 8.796 1.772 3.236 2.683 6.779 2.683 10.517 0 7.383-2.734 13.609-8.253 18.667-5.509 5.059-12.544 7.639-21.238 7.639-10.158 0-17.654-2.58-22.457-7.69-4.751-5.11-8.847-12.697-12.144-22.661-3.185-10.424-9.103-15.575-17.849-15.575-5.212 0-9.564 1.771-13.097 5.468-3.543 3.645-5.366 7.588-5.366 11.837 0 8.745 2.826 17.603 8.499 26.655 5.612 8.96 13.804 16.435 24.576 22.364 10.823 5.868 23.419 8.796 37.827 8.796 13.353 0 25.19-2.427 35.461-7.383 10.158-4.956 18.115-11.632 23.675-20.132s8.336-17.756 8.336-27.668c0-7.844-1.598-14.766-4.752-20.634z" />
<glyph unicode="&#xe635;" d="M412.877 161.229c-25.334 0-48.343-10.127-65.301-26.512l-155.044 77.476c0.482 3.861 0.819 7.762 0.819 11.735s-0.327 7.885-0.819 11.735l155.074 77.496c16.947-16.374 39.957-26.521 65.27-26.521 51.804 0 94.003 42.311 94.003 94.116s-42.199 94.126-94.003 94.126-94.106-42.311-94.106-94.116c0-3.963 0.327-7.844 0.809-11.684l-155.095-77.548c-16.947 16.374-39.946 26.522-65.26 26.522-51.804 0-94.116-42.311-94.116-94.116s42.312-94.116 94.116-94.116c25.354 0 48.384 10.178 65.342 26.603l155.013-77.507c-0.491-3.87-0.819-7.793-0.819-11.786 0-51.804 42.312-94.003 94.106-94.003s94.003 42.199 94.003 94.003c0.010 51.906-42.189 94.096-93.993 94.096z" />
<glyph unicode="&#xe636;" d="M0 479.715v-511.429h2395.193v511.429h-2395.193zM372.727 18.947l-133.208 62.429-133.219-62.429 18.283 146.008-100.818 107.366 144.7 27.951 71.053 128.769 71.043-128.769 144.712-27.951-100.829-107.366 18.283-146.008zM851.766 18.947l-133.208 62.429-133.208-62.429 18.283 146.008-100.818 107.366 144.701 27.951 71.043 128.769 71.043-128.769 144.712-27.951-100.829-107.366 18.283-146.008zM1330.805 18.947l-133.208 62.429-133.219-62.429 18.283 146.008-100.818 107.366 144.7 27.951 71.053 128.769 71.043-128.769 144.712-27.951-100.84-107.366 18.293-146.008zM1809.843 18.947l-133.197 62.429-133.219-62.429 18.283 146.008-100.818 107.366 144.7 27.951 71.053 128.769 71.043-128.769 144.711-27.951-100.84-107.366 18.283-146.008zM2288.893 18.947l-133.208 62.429-133.219-62.429 18.030 146.008-100.554 107.366 144.69 27.951 71.064 128.769 71.043-128.769 144.7-27.951-100.829-107.366 18.282-146.008z" horiz-adv-x="2395" />
<glyph unicode="&#xe637;" d="M494.756 301.517c-10.772 33.157-43.847 25.518-62.116 50.739-18.258 25.139-0.839 54.17-29.031 74.722-28.272 20.48-50.514-5.12-80.077 4.505s-32.543 43.397-67.39 43.397c-34.918 0-37.898-33.772-67.461-43.397-29.573-9.625-51.804 15.974-80.005-4.505-28.273-20.552-10.773-49.593-29.112-74.722-18.258-25.211-51.272-17.572-62.044-50.739-10.773-33.157 20.398-46.459 20.398-77.558 0-31.089-31.171-44.308-20.398-77.466 10.773-33.239 43.776-25.6 62.044-50.739 18.34-25.211 0.84-54.241 29.112-74.721 28.19-20.562 50.432 5.038 80.005-4.587 29.563-9.615 32.542-43.315 67.461-43.315 34.846 0 37.827 33.7 67.39 43.315 29.573 9.625 51.815-15.974 80.077 4.587 28.19 20.48 10.772 49.51 29.031 74.721 18.268 25.139 51.354 17.5 62.116 50.739 10.783 33.157-20.398 46.377-20.398 77.466 0 31.099 31.181 44.401 20.398 77.558zM256.144 28.18c-108.114 0-195.779 87.675-195.779 195.779 0 108.124 87.665 195.789 195.779 195.789 108.104 0 195.779-87.665 195.779-195.789 0-108.114-87.675-195.779-195.779-195.779zM256.144 38.062c102.4 0 185.897 83.497 185.897 185.897 0 102.41-83.487 185.907-185.897 185.907s-185.897-83.497-185.897-185.907c0-102.4 83.497-185.897 185.897-185.897v0z" />
<glyph unicode="&#xe638;" d="M381.481 56.771c23.091 0 41.748-18.821 41.748-41.902 0-23.091-18.657-41.748-41.748-41.748h-334.459c-23.081 0-41.902 18.657-41.902 41.748v334.449c0 23.091 18.821 41.912 41.902 41.912 23.091 0 41.749-18.821 41.749-41.912v-292.547h292.711zM173.538 391.23c-23.091 0-41.912 18.657-41.912 41.748 0 23.081 18.821 41.902 41.912 41.902h291.594c23.091 0 41.748-18.821 41.748-41.902v-291.594c0-23.255-18.657-41.913-41.748-41.913-23.081 0-41.902 18.658-41.902 41.913v190.7l-179.487-179.487c-16.292-16.435-42.855-16.435-59.136 0-16.292 16.292-16.292 42.701 0 59.136l179.486 179.497h-190.556z" />
</font>
</defs>
</svg>
